PathFileType	4	(X/Y/Z)	/Users/niels/Desktop/University/Third Semester/Perception and Action/Exam/Gymnastics Motion Tracking/Code for Gym Tracking/Analyzed Data/Start Salto/stsalto_bad_id15_1_Sports2D/stsalto_bad_id15_1_Sports2D_px_person00.trc
DataRate	CameraRate	NumFrames	NumMarkers	Units	OrigDataRate	OrigDataStartFrame	OrigNumFrames
29.85576923076923	29.85576923076923	7	22	m	29.85576923076923	156	208
Frame#	Time	Hip			RHip			RKnee			RAnkle			RBigToe			RSmallToe			RHeel			LHip			LKnee			LAnkle			LBigToe			LSmallToe			LHeel			Neck			Head			Nose			RShoulder			RElbow			RWrist			LShoulder			LElbow			LWrist		
		X1	Y1	Z1	X2	Y2	Z2	X3	Y3	Z3	X4	Y4	Z4	X5	Y5	Z5	X6	Y6	Z6	X7	Y7	Z7	X8	Y8	Z8	X9	Y9	Z9	X10	Y10	Z10	X11	Y11	Z11	X12	Y12	Z12	X13	Y13	Z13	X14	Y14	Z14	X15	Y15	Z15	X16	Y16	Z16	X17	Y17	Z17	X18	Y18	Z18	X19	Y19	Z19	X20	Y20	Z20	X21	Y21	Z21	X22	Y22	Z22
156	5.22512077294686	1.4139599289166214	-0.6938763120681061	0.0	1.414268199380489	-0.6921186341131188	0.0	1.5546685124688489	-0.653413146432393	0.0	1.5777934690501403	-0.7789928220729118	0.0	1.6373394971421409	-0.7766342889485557	0.0	1.62863149703507	-0.7867565319867441	0.0	1.5707835208669805	-0.7998006440590084	0.0	1.4121078070877304	-0.6937900623612564	0.0	1.5517180836155904	-0.6586646500189779	0.0	1.5226643745536068	-0.77393409544028	0.0	1.555937092620601	-0.7806625124235752	0.0	1.5487505045700505	-0.7824672245606257	0.0	1.5096817561380425	-0.7930893177347976	0.0	1.4803458421389746	-0.5390112760047631	0.0	1.5252222893554876	-0.46711812669248165	0.0	1.5314209721223648	-0.5157193630578986	0.0	1.4780068526862262	-0.5360629881233234	0.0	1.5645348768745084	-0.5045275721407766	0.0	1.640176892937557	-0.4525833700584545	0.0	1.4870877366717035	-0.5460175024130616	0.0	1.5698371848052928	-0.5243204984104997	0.0	1.6399294798866988	-0.4888618641008398	0.0
157	5.258615136876006	1.4154359502007385	-0.6945405041723004	0.0	1.416384546500561	-0.6935801009817597	0.0	1.557538228558818	-0.6536747532944478	0.0	1.5784838017955996	-0.7787073611018717	0.0	1.6371059011996318	-0.7764788658969173	0.0	1.6284755271481588	-0.7863092938082432	0.0	1.5711726264204824	-0.7999782312562509	0.0	1.4144595796905983	-0.6941988676132265	0.0	1.554025842735817	-0.6583749736381123	0.0	1.5227867067733105	-0.774641666890672	0.0	1.5536830302522322	-0.7806111517506483	0.0	1.5476867124498637	-0.7829478587494797	0.0	1.5102904385647182	-0.7929716755102172	0.0	1.483969313079226	-0.540842642942076	0.0	1.5315156582930993	-0.4705867623256404	0.0	1.5362414339956059	-0.519225659586176	0.0	1.481846635074845	-0.5384188809707999	0.0	1.5704600846354444	-0.5112951653401346	0.0	1.6485899955814947	-0.46224537132991383	0.0	1.4894657102090516	-0.5472796180216883	0.0	1.5725834058447372	-0.5286565905584841	0.0	1.6454276623401953	-0.4923928090396471	0.0
158	5.292109500805153	1.4169655856925991	-0.6952652026432601	0.0	1.418379821502905	-0.6954147283832837	0.0	1.5606413417579539	-0.6544961698954063	0.0	1.579606413619324	-0.7791535071168788	0.0	1.6371827410533515	-0.7767156778664389	0.0	1.6288063477288925	-0.786333600578977	0.0	1.5719706440061374	-0.8006840553474543	0.0	1.4166982195954902	-0.6949508898311678	0.0	1.5562377454506535	-0.6582384278733805	0.0	1.5228772281753697	-0.7754302567640352	0.0	1.5524502998225305	-0.7811126446831189	0.0	1.5479621858798358	-0.783808595100623	0.0	1.5107137474796142	-0.7926474461158346	0.0	1.487519854642295	-0.5425661673237822	0.0	1.5386543333816123	-0.47442816213865574	0.0	1.5411072741958178	-0.5236043332036687	0.0	1.4851660191463858	-0.5408986723195989	0.0	1.5760153327152469	-0.5182140531068681	0.0	1.6564177872052195	-0.47291015213515103	0.0	1.491242237087466	-0.5484706485948198	0.0	1.5747189525466296	-0.5328666281338568	0.0	1.6503828063665467	-0.49615151245452144	0.0
159	5.325603864734299	1.4185950985472284	-0.6962575354479141	0.0	1.4203215956138624	-0.6975149741522385	0.0	1.563866125365429	-0.6557426374881499	0.0	1.581027270610975	-0.780244700979951	0.0	1.637640942431501	-0.7775443275215084	0.0	1.6295593047991253	-0.7868968575561086	0.0	1.5730920552310335	-0.8018312314597225	0.0	1.418844725502126	-0.69615028742409	0.0	1.558372385336925	-0.6584365305958219	0.0	1.5229662189173423	-0.7762046428694894	0.0	1.5521245917953281	-0.7821285500651187	0.0	1.549283990992214	-0.784960077130402	0.0	1.5108480962834145	-0.7921936585506953	0.0	1.491085784377914	-0.5443589633966448	0.0	1.546173867455335	-0.47844906883391036	0.0	1.5460612788392236	-0.5284313758978874	0.0	1.4881382708080595	-0.5433683477842036	0.0	1.581128209754393	-0.5251336087340831	0.0	1.6633564122085562	-0.48435362807236015	0.0	1.4924423948380123	-0.5497070286203218	0.0	1.5765811830926018	-0.5370327130355143	0.0	1.654867844222378	-0.5009247890175047	0.0
160	5.359098228663446	1.4203291665422437	-0.6976030097021746	0.0	1.4223033981412196	-0.6996924838217514	0.0	1.5671422886349051	-0.6572819267988391	0.0	1.5825513757428538	-0.7818910171963329	0.0	1.6384055985901005	-0.7791376901479031	0.0	1.630617980661172	-0.7880837565250748	0.0	1.574398017909001	-0.8033339014456059	0.0	1.4210095074458922	-0.6977534210419644	0.0	1.5604430245241891	-0.6591365257352738	0.0	1.5230433393107827	-0.7769403242147537	0.0	1.552517224179485	-0.783435808792294	0.0	1.551197671803315	-0.7862352306326313	0.0	1.5106680049563042	-0.7918436850966101	0.0	1.4947349299480248	-0.5463474894452225	0.0	1.5535490714154698	-0.4824145443096569	0.0	1.5510900335773845	-0.5332909996641921	0.0	1.491076239781388	-0.5457234179924773	0.0	1.5857690627263403	-0.5319054113621731	0.0	1.6692892764394842	-0.4962343704564672	0.0	1.4933447810680063	-0.5510397060818013	0.0	1.5786064512926357	-0.5412403598855982	0.0	1.6589478254923302	-0.5071749679954434	0.0
161	5.392592592592592	1.4221896112922496	-0.6992182789725342	0.0	1.4244375483779632	-0.701753641467792	0.0	1.5704396611439873	-0.6589660207271262	0.0	1.5839721765427137	-0.78394842165964	0.0	1.6393106047286163	-0.7815386064411299	0.0	1.6318165653810144	-0.7899648341777513	0.0	1.5757528362561202	-0.8050806419155156	0.0	1.423294096703161	-0.6996109868570852	0.0	1.5624844661642716	-0.660354452208277	0.0	1.523132123522271	-0.7776416586766661	0.0	1.553470379723994	-0.7848601562588893	0.0	1.5533212768195805	-0.7874852658884427	0.0	1.5102865657932598	-0.7918410774393084	0.0	1.4985013866124755	-0.5485348981568785	0.0	1.5603484841756663	-0.48607966968398364	0.0	1.556072550185469	-0.5378772720309352	0.0	1.4943300776112927	-0.54796979031879	0.0	1.5900064744816411	-0.5384683688508692	0.0	1.67439673815634	-0.5082142681517476	0.0	1.4943625353752703	-0.5524101015576587	0.0	1.5811662436867098	-0.5454304370423136	0.0	1.6626975788438962	-0.5145556975289219	0.0
162	5.426086956521739	1.4242189385825699	-0.7009416292174077	0.0	1.4268232380604373	-0.7035981559753648	0.0	1.5736818863625084	-0.6606205823336148	0.0	1.5851288561642032	-0.7861885888470457	0.0	1.6402038732077273	-0.7845705407639252	0.0	1.6329388782453114	-0.7924571578038221	0.0	1.577041657347598	-0.8068966263487761	0.0	1.4257863122283114	-0.7015593510854605	0.0	1.564555591228947	-0.6618885311665271	0.0	1.5233023900584517	-0.7782659229718768	0.0	1.554901103586003	-0.7863356234629257	0.0	1.555472184857041	-0.7886298050823943	0.0	1.509912442673433	-0.7922271986132776	0.0	1.5023851522142295	-0.5507927188215731	0.0	1.566182753921397	-0.4892460156959831	0.0	1.5608137360170349	-0.5419783111836215	0.0	1.4980662926339052	-0.5501651352310795	0.0	1.593890171753527	-0.5447955079504072	0.0	1.6789942134381635	-0.5199872494377052	0.0	1.4959719119485597	-0.5537482357817846	0.0	1.584467692526221	-0.5493691211803695	0.0	1.6661963079181992	-0.5220095039605632	0.0
